<svg width="140" height="120" viewBox="0 0 140 120" fill="none" xmlns="http://www.w3.org/2000/svg">
<path d="M65.1205 48.7399C58.0505 48.7399 49.8705 43.3299 49.6405 36.0799C49.4205 29.1699 50.3605 24.5999 64.7705 24.1499C79.1005 23.7199 80.4305 28.8599 80.6205 35.1199C80.7205 38.2499 79.1605 41.5599 76.3405 44.2199C73.3805 47.0099 69.5505 48.6099 65.5405 48.7299C65.4105 48.7399 65.2705 48.7399 65.1205 48.7399ZM66.4605 25.1199C65.9305 25.1199 65.3805 25.1299 64.8105 25.1499C50.3205 25.5999 50.4705 30.4399 50.6505 36.0499C50.8205 41.6599 57.3805 47.9699 65.5205 47.7299C69.2905 47.6099 72.8905 46.1099 75.6705 43.4899C78.2405 41.0699 79.7305 37.9499 79.6405 35.1499C79.4605 29.4799 78.3405 25.1199 66.4605 25.1199Z" fill="#8B8B8B"/>
<path d="M64.73 10.46C66.2377 10.46 67.46 9.23774 67.46 7.73C67.46 6.22226 66.2377 5 64.73 5C63.2223 5 62 6.22226 62 7.73C62 9.23774 63.2223 10.46 64.73 10.46Z" fill="#FF8853"/>
<g style="mix-blend-mode:multiply" opacity="0.2">
<path d="M98.2705 114.27L84.0905 115.57L70.9305 115.72L68.7405 115.39C66.4405 115.25 64.3105 114.6 64.1405 112.29L63.7305 109.77C62.7305 109.81 63.1305 109.76 61.6905 109.84C60.9505 109.88 60.3005 113.29 58.7505 114.08C55.4505 115.76 54.2605 116.95 49.7005 113.86C48.0105 112.72 48.2905 111.1 46.9705 111.17C41.4905 111.45 38.2205 113.32 38.2205 114.7C38.2205 117.46 51.6305 119.69 68.1805 119.69C77.6405 119.69 86.0805 118.96 91.5705 117.82C93.5405 117.41 95.4105 116.59 97.0705 115.45L98.2705 114.27Z" fill="#262626"/>
</g>
<path d="M64.8205 52.2199C53.9105 52.2199 45.0305 43.3399 45.0305 32.4299C45.0305 21.5199 53.9105 12.6399 64.8205 12.6399C75.7305 12.6399 84.6105 21.5199 84.6105 32.4299C84.6105 43.3399 75.7305 52.2199 64.8205 52.2199ZM64.8205 13.6499C54.4605 13.6499 46.0305 22.0799 46.0305 32.4399C46.0305 42.7999 54.4605 51.2299 64.8205 51.2299C75.1805 51.2299 83.6105 42.7999 83.6105 32.4399C83.6105 22.0799 75.1805 13.6499 64.8205 13.6499Z" fill="#8B8B8B"/>
<path d="M81.3905 56.6999C81.2305 56.6999 81.0805 56.6299 80.9805 56.4899C80.8205 56.2699 80.8705 55.9499 81.0905 55.7899C92.0805 47.8899 95.5105 39.2899 91.2905 30.2299C90.6405 28.8299 89.7205 27.6899 88.6405 26.9399C87.0305 25.8299 85.3805 25.6299 83.7305 26.3699C83.4805 26.4799 83.1805 26.3699 83.0705 26.1199C82.9605 25.8699 83.0705 25.5699 83.3205 25.4599C85.2805 24.5799 87.3205 24.8099 89.2105 26.1199C90.4405 26.9699 91.4705 28.2399 92.2005 29.8099C96.6505 39.3699 93.1105 48.3799 81.6805 56.5999C81.5905 56.6699 81.4905 56.6999 81.3905 56.6999Z" fill="#8B8B8B"/>
<path d="M54.3905 116.24C50.0405 116.24 46.5105 112.7 46.5105 108.36V71.0398C46.5105 70.7598 46.7305 70.5398 47.0105 70.5398C47.2905 70.5398 47.5105 70.7598 47.5105 71.0398V108.36C47.5105 112.16 50.6005 115.24 54.3905 115.24C58.1805 115.24 61.2705 112.15 61.2705 108.36L62.1405 91.4698C62.1805 90.6698 62.8605 90.0398 63.6805 90.0798C63.7605 90.0798 63.8505 90.1098 63.9205 90.1598L64.1705 90.3198C64.4005 90.4698 64.4805 90.7698 64.3305 91.0098C64.1805 91.2498 63.8805 91.3198 63.6405 91.1698L63.5205 91.0898C63.3105 91.1298 63.1505 91.3098 63.1405 91.5298L62.2705 108.39C62.2705 112.71 58.7405 116.24 54.3905 116.24Z" fill="#8B8B8B"/>
<g style="mix-blend-mode:multiply" opacity="0.2">
<path d="M64.6705 83.53L52.7805 83.7L52.7405 72.92L58.1805 72.47L61.2605 69.25L61.1305 65.56L59.0905 63.08L53.4105 60.62C53.4105 57.51 55.9305 55.99 59.0405 55.99C62.1505 55.99 64.6705 57.51 64.6705 60.62V83.53Z" fill="#262626"/>
</g>
<path d="M55.4605 73.4C55.4405 73.4 55.4305 73.4 55.4105 73.4C50.9305 73.37 47.7005 71.76 45.1005 70.46C44.7805 70.3 44.4605 70.14 44.1605 70C41.4405 68.68 39.3005 66.75 37.9705 64.4C36.2805 61.4 35.8805 58.33 36.7705 55.25C38.9405 47.81 47.8505 42.98 48.2305 42.78C48.4705 42.65 48.7805 42.74 48.9105 42.99C49.0405 43.23 48.9505 43.54 48.7005 43.67C48.6105 43.72 39.7705 48.51 37.7305 55.54C36.9105 58.34 37.2905 61.16 38.8405 63.91C40.0605 66.08 42.0505 67.87 44.5905 69.1C44.9005 69.25 45.2205 69.41 45.5405 69.57C48.0405 70.82 51.1605 72.37 55.4105 72.4C57.1105 72.38 58.7105 71.7 59.7405 70.45C60.4105 69.64 60.8205 68.75 60.9605 67.81C61.2005 66.15 60.3105 64.51 58.7405 63.73L46.8605 57.82C46.6105 57.7 46.5105 57.4 46.6305 57.15C46.7505 56.9 47.0505 56.8 47.3005 56.92L59.1805 62.83C61.1405 63.8 62.2505 65.86 61.9405 67.95C61.7805 69.07 61.2905 70.13 60.5005 71.08C59.3005 72.56 57.4605 73.4 55.4605 73.4Z" fill="#8B8B8B"/>
<path d="M69.4105 115.9C68.4205 115.9 67.4805 115.71 66.6405 115.32C65.2005 114.65 62.8505 112.74 63.3105 107.55C64.1005 98.8299 63.9005 84.9299 63.7405 73.7599C63.6605 68.2499 63.5905 63.4799 63.6605 60.2799C63.6805 59.3299 63.3205 58.4299 62.6505 57.7499C61.9805 57.0699 61.0905 56.6899 60.1405 56.6899H57.9505C56.0105 56.6899 54.4305 58.2699 54.4305 60.2099C54.4305 60.4899 54.2105 60.7099 53.9305 60.7099C53.6505 60.7099 53.4305 60.4899 53.4305 60.2099C53.4305 57.7199 55.4605 55.6899 57.9505 55.6899H60.1405C61.3605 55.6899 62.5105 56.1699 63.3705 57.0499C64.2305 57.9299 64.6905 59.0799 64.6605 60.2999C64.6005 63.4899 64.6705 68.2399 64.7405 73.7499C64.9005 84.9399 65.1005 98.8799 64.3105 107.65C64.0005 111.09 64.9505 113.43 67.0605 114.42C67.8005 114.77 68.6705 114.92 69.5705 114.9H69.6805C71.8205 114.81 74.2005 113.76 75.9805 111.97C78.6505 109.28 79.2405 105.76 77.6105 102.3C77.5405 102.15 77.5505 101.96 77.6405 101.82C77.7305 101.68 77.8905 101.59 78.0605 101.59H102.541C102.731 101.59 102.891 101.69 102.981 101.86C103.091 102.07 105.681 107.03 103.701 110.91C102.571 113.13 100.191 114.5 96.6405 115L70.0605 115.9C69.8305 115.89 69.6205 115.9 69.4105 115.9ZM78.8105 102.57C80.2405 106.2 79.4805 109.84 76.6805 112.66C75.8305 113.52 74.8605 114.22 73.8505 114.75L96.5405 113.99C99.7005 113.55 101.821 112.35 102.791 110.44C104.301 107.49 102.691 103.62 102.211 102.58H78.8105V102.57Z" fill="#8B8B8B"/>
<path d="M96.2305 102.58C96.1805 102.58 96.1205 102.57 96.0705 102.55C92.4705 101.3 93.1305 94.1499 93.1605 93.8399C96.7305 61.7299 90.8405 57.0999 90.1605 56.6799H60.1305C59.8505 56.6799 59.6305 56.4599 59.6305 56.1799C59.6305 55.8999 59.8505 55.6799 60.1305 55.6799H90.2805C90.3405 55.6799 90.4005 55.6899 90.4505 55.7099C90.7605 55.8199 98.0505 58.8899 94.1505 93.9399C93.9705 95.7899 94.0205 100.78 96.3905 101.6C96.6505 101.69 96.7905 101.98 96.7005 102.24C96.6305 102.45 96.4405 102.58 96.2305 102.58Z" fill="#8B8B8B"/>
<path d="M49.4405 59.0399C49.3805 59.0399 49.3105 59.0299 49.2505 58.9999C49.0005 58.8899 48.8705 58.5999 48.9805 58.3499C52.2605 50.5099 46.3505 45.4899 46.1005 45.2799C45.8905 45.0999 45.8605 44.7899 46.0305 44.5799C46.2105 44.3699 46.5205 44.3399 46.7305 44.5099C46.8005 44.5699 53.4605 50.1999 49.9005 58.7399C49.8205 58.9299 49.6405 59.0399 49.4405 59.0399Z" fill="#8B8B8B"/>
<path d="M54.6105 58.3699C54.5305 58.3699 54.4505 58.3499 54.3705 58.3099C54.1305 58.1799 54.0305 57.8799 54.1605 57.6299C55.0005 56.0699 54.7905 51.8199 53.7405 49.0599C53.6405 48.7999 53.7705 48.5099 54.0305 48.4099C54.2905 48.3099 54.5805 48.4399 54.6805 48.6999C55.7105 51.4299 56.1005 56.1299 55.0405 58.0999C54.9605 58.2799 54.7905 58.3699 54.6105 58.3699Z" fill="#8B8B8B"/>
<path d="M76.2305 56.5299C76.1505 56.5299 76.0605 56.5099 75.9805 56.4599C74.3205 55.5099 74.6105 50.1999 74.6805 49.1499C74.7005 48.8699 74.9405 48.6599 75.2105 48.6899C75.4905 48.7099 75.6905 48.9499 75.6705 49.2199C75.4805 51.9599 75.7305 55.1699 76.4705 55.5999C76.7105 55.7399 76.7905 56.0399 76.6605 56.2799C76.5805 56.4399 76.4105 56.5299 76.2305 56.5299Z" fill="#8B8B8B"/>
<path d="M80.7505 56.4199C80.6805 56.4199 80.6205 56.4099 80.5505 56.3799C78.1305 55.3399 78.8305 46.6599 79.0005 44.9199C79.0305 44.6499 79.2605 44.4399 79.5405 44.4699C79.8105 44.4999 80.0205 44.7399 79.9905 45.0099C79.6105 49.0099 79.6505 54.8999 80.9405 55.4499C81.1905 55.5599 81.3105 55.8499 81.2005 56.1099C81.1305 56.2999 80.9405 56.4199 80.7505 56.4199Z" fill="#8B8B8B"/>
<path d="M41.6405 48.8799C41.3605 48.8799 41.1405 48.6599 41.1405 48.3799V44.7099C41.1405 43.1499 42.4105 41.8799 43.9705 41.8799H48.1705C48.4505 41.8799 48.6705 42.0999 48.6705 42.3799C48.6705 42.6599 48.4505 42.8799 48.1705 42.8799H43.9705C42.9605 42.8799 42.1405 43.6999 42.1405 44.7099V48.3799C42.1405 48.6599 41.9205 48.8799 41.6405 48.8799Z" fill="#8B8B8B"/>
<path d="M46.9705 77.0898H43.9805C42.4205 77.0898 41.1505 75.8198 41.1505 74.2598V68.0398C41.1505 67.7598 41.3705 67.5398 41.6505 67.5398C41.9305 67.5398 42.1505 67.7598 42.1505 68.0398V74.2598C42.1505 75.2698 42.9705 76.0898 43.9805 76.0898H46.9705C47.2505 76.0898 47.4705 76.3098 47.4705 76.5898C47.4705 76.8698 47.2405 77.0898 46.9705 77.0898Z" fill="#8B8B8B"/>
<path d="M64.3205 84.6398H52.5405C52.2605 84.6398 52.0405 84.4198 52.0405 84.1398V73.0498C52.0405 72.7698 52.2605 72.5498 52.5405 72.5498C52.8205 72.5498 53.0405 72.7698 53.0405 73.0498V83.6398H64.3205C64.6005 83.6398 64.8205 83.8598 64.8205 84.1398C64.8205 84.4198 64.6005 84.6398 64.3205 84.6398Z" fill="#8B8B8B"/>
<g opacity="0.7">
<path opacity="0.7" d="M90.4205 63.4399H68.2905V66.7899H90.4205V63.4399Z" fill="url(#paint0_linear_818_1778)"/>
</g>
<g opacity="0.7">
<path opacity="0.7" d="M86.4705 71.0098H68.2905V74.3798H86.4705V71.0098Z" fill="url(#paint1_linear_818_1778)"/>
</g>
<path d="M90.3405 67.5698H68.1805C67.9005 67.5698 67.6805 67.3498 67.6805 67.0698V63.5298C67.6805 63.2498 67.9005 63.0298 68.1805 63.0298H90.3405C90.6205 63.0298 90.8405 63.2498 90.8405 63.5298V67.0698C90.8405 67.3498 90.6205 67.5698 90.3405 67.5698ZM68.6805 66.5698H89.8405V64.0298H68.6805V66.5698Z" fill="#8B8B8B"/>
<path d="M86.3105 74.8798H68.1805C67.9005 74.8798 67.6805 74.6598 67.6805 74.3798V70.8398C67.6805 70.5598 67.9005 70.3398 68.1805 70.3398H86.3105C86.5905 70.3398 86.8105 70.5598 86.8105 70.8398V74.3798C86.8105 74.6598 86.5905 74.8798 86.3105 74.8798ZM68.6805 73.8798H85.8105V71.3398H68.6805V73.8798Z" fill="#8B8B8B"/>
<path d="M65.0005 13.5899C64.7305 13.5899 64.5005 13.3914 64.5005 13.1389L64.4805 10.451C64.4805 10.1984 64.7005 10 64.9805 10C65.2505 10 65.4805 10.1984 65.4805 10.451L65.5005 13.1389C65.5105 13.3824 65.2805 13.5808 65.0005 13.5899C65.0105 13.5899 65.0105 13.5899 65.0005 13.5899Z" fill="#8B8B8B"/>
<path d="M65.0205 10.69C63.2405 10.69 61.7905 9.23998 61.7905 7.45998C61.7905 5.67998 63.2405 4.22998 65.0205 4.22998C66.8005 4.22998 68.2505 5.67998 68.2505 7.45998C68.2505 9.23998 66.8005 10.69 65.0205 10.69ZM65.0205 5.22998C63.7905 5.22998 62.7905 6.22998 62.7905 7.45998C62.7905 8.68998 63.7905 9.68998 65.0205 9.68998C66.2505 9.68998 67.2505 8.68998 67.2505 7.45998C67.2505 6.22998 66.2505 5.22998 65.0205 5.22998Z" fill="#8B8B8B"/>
<path d="M83.5705 37.7401C83.3605 37.7401 83.1605 37.6001 83.0905 37.3801C83.0105 37.1201 83.1605 36.8401 83.4205 36.7601L86.2205 35.9201C86.5805 35.8101 86.8305 35.4401 86.8305 35.0101V32.3301C86.8305 31.9501 86.6205 31.5901 86.3105 31.4501L83.9705 30.3801C83.7205 30.2701 83.6105 29.9701 83.7205 29.7201C83.8305 29.4701 84.1305 29.3601 84.3805 29.4701L86.7205 30.5401C87.3905 30.8501 87.8205 31.5501 87.8205 32.3301V35.0101C87.8205 35.8801 87.2805 36.6501 86.4905 36.8801L83.6905 37.7201C83.6705 37.7301 83.6205 37.7401 83.5705 37.7401Z" fill="#8B8B8B"/>
<path d="M83.5705 37.7401C83.3605 37.7401 83.1605 37.6001 83.0905 37.3801C83.0105 37.1201 83.1605 36.8401 83.4205 36.7601L86.2205 35.9201C86.5805 35.8101 86.8305 35.4401 86.8305 35.0101V32.3301C86.8305 31.9501 86.6205 31.5901 86.3105 31.4501L83.9705 30.3801C83.7205 30.2701 83.6105 29.9701 83.7205 29.7201C83.8305 29.4701 84.1305 29.3601 84.3805 29.4701L86.7205 30.5401C87.3905 30.8501 87.8205 31.5501 87.8205 32.3301V35.0101C87.8205 35.8801 87.2805 36.6501 86.4905 36.8801L83.6905 37.7201C83.6705 37.7301 83.6205 37.7401 83.5705 37.7401Z" fill="#8B8B8B"/>
<path d="M45.9905 37.7401C45.9405 37.7401 45.8905 37.7301 45.8505 37.7201L43.0505 36.8801C42.2705 36.6501 41.7305 35.8801 41.7305 35.0101V32.3301C41.7305 31.5501 42.1605 30.8501 42.8305 30.5401L45.4705 29.3301C45.7205 29.2101 46.0205 29.3301 46.1305 29.5801C46.2405 29.8301 46.1305 30.1301 45.8805 30.2401L43.2405 31.4501C42.9305 31.5901 42.7205 31.9501 42.7205 32.3301V35.0101C42.7205 35.4401 42.9705 35.8201 43.3305 35.9201L46.1305 36.7601C46.3905 36.8401 46.5405 37.1201 46.4605 37.3801C46.4005 37.6001 46.2005 37.7401 45.9905 37.7401Z" fill="#8B8B8B"/>
<defs>
<linearGradient id="paint0_linear_818_1778" x1="68.294" y1="65.1173" x2="90.4198" y2="65.1173" gradientUnits="userSpaceOnUse">
<stop stop-color="#FF7002"/>
<stop offset="0.2957" stop-color="#FE7304"/>
<stop offset="0.4996" stop-color="#FC7C0A"/>
<stop offset="0.6759" stop-color="#F88B15"/>
<stop offset="0.8364" stop-color="#F3A125"/>
<stop offset="0.9849" stop-color="#ECBD39"/>
<stop offset="1" stop-color="#EBC03B"/>
</linearGradient>
<linearGradient id="paint1_linear_818_1778" x1="68.294" y1="72.6945" x2="86.4733" y2="72.6945" gradientUnits="userSpaceOnUse">
<stop stop-color="#FF7002"/>
<stop offset="0.2957" stop-color="#FE7304"/>
<stop offset="0.4996" stop-color="#FC7C0A"/>
<stop offset="0.6759" stop-color="#F88B15"/>
<stop offset="0.8364" stop-color="#F3A125"/>
<stop offset="0.9849" stop-color="#ECBD39"/>
<stop offset="1" stop-color="#EBC03B"/>
</linearGradient>
</defs>
</svg>
