<svg xmlns="http://www.w3.org/2000/svg" xmlns:xlink="http://www.w3.org/1999/xlink" viewBox="0 0 560 420"><defs><style>.cls-1,.cls-11,.cls-13,.cls-15,.cls-18,.cls-28,.cls-5{fill:none;}.cls-2,.cls-21,.cls-23,.cls-24{isolation:isolate;}.cls-16,.cls-19,.cls-29,.cls-3,.cls-30,.cls-4,.cls-7,.cls-8{fill:#fff;}.cls-11,.cls-13,.cls-15,.cls-16,.cls-18,.cls-19,.cls-22,.cls-26,.cls-27,.cls-28,.cls-29,.cls-30,.cls-4,.cls-5,.cls-7,.cls-8{stroke:#3a3836;}.cls-4{stroke-miterlimit:10;stroke-width:2px;}.cls-11,.cls-15,.cls-16,.cls-19,.cls-22,.cls-26,.cls-28,.cls-29,.cls-5,.cls-8{stroke-miterlimit:10;}.cls-13,.cls-18,.cls-19,.cls-22,.cls-5,.cls-7{stroke-width:2px;}.cls-6{fill:#a2ecc2;}.cls-18,.cls-7{stroke-linecap:round;stroke-linejoin:round;}.cls-11,.cls-8{stroke-width:1.96px;}.cls-9{clip-path:url(#clip-path);}.cls-10{fill:#ffde83;}.cls-12{fill:#3a3836;}.cls-14{fill:url(#linear-gradient);}.cls-15,.cls-16{stroke-width:2.09px;}.cls-17,.cls-25{fill:#e4e4e4;}.cls-20,.cls-21,.cls-23,.cls-24{opacity:0.7;}.cls-21{fill:#ff6c37;}.cls-22{fill:#ff6c1b;}.cls-23{fill:url(#linear-gradient-2);}.cls-24{fill:url(#linear-gradient-3);}.cls-25{mix-blend-mode:multiply;}.cls-26,.cls-27,.cls-31{fill:#d1dafa;}.cls-26,.cls-28,.cls-29{stroke-width:1.8px;}.cls-27,.cls-30{stroke-miterlimit:10;stroke-width:1.8px;}</style><clipPath id="clip-path"><path class="cls-1" d="M191.5,22.6h119a41.87,41.87,0,0,1,41.9,41.8h0V308.7H149.6V64.5a42,42,0,0,1,41.9-41.9Z"/></clipPath><linearGradient id="linear-gradient" x1="256" y1="311.45" x2="379.9" y2="311.45" gradientTransform="translate(0 -154)" gradientUnits="userSpaceOnUse"><stop offset="0" stop-color="#ff6d37"/><stop offset="0.31" stop-color="#fa9139"/><stop offset="0.64" stop-color="#f7ac3b"/><stop offset="0.87" stop-color="#fac53c"/></linearGradient><linearGradient id="linear-gradient-2" x1="-2270.38" y1="-6529.93" x2="-2262.47" y2="-6529.93" gradientTransform="translate(-1799.25 -6266.53) rotate(180)" gradientUnits="userSpaceOnUse"><stop offset="0" stop-color="#ff7002"/><stop offset="0.3" stop-color="#fc7304"/><stop offset="0.5" stop-color="#fa7c0a"/><stop offset="0.68" stop-color="#f68915"/><stop offset="0.84" stop-color="#f19f25"/><stop offset="0.98" stop-color="#eabb39"/><stop offset="1" stop-color="#e9be3b"/></linearGradient><linearGradient id="linear-gradient-3" x1="-2100.61" y1="-6530.73" x2="-2019.46" y2="-6530.73" xlink:href="#linear-gradient-2"/></defs><g class="cls-2"><g id="Layer_1" data-name="Layer 1"><rect class="cls-3" x="408.09" y="208.89" width="19.98" height="24.31"/><g id="Layer_1-2" data-name="Layer 1"><rect class="cls-4" x="469.22" y="293.4" width="41.4" height="55" transform="translate(-85.46 430.18) rotate(-43.98)"/><polyline class="cls-5" points="485.7 286.7 492.1 320.5 523.9 326.3"/><path class="cls-6" d="M126.3,307.8s-6.2-41.5,11.6-53.1,9.8,52.7,9.8,52.7Z"/><path class="cls-7" d="M412.1,274.3l21.7,18.3a16.63,16.63,0,0,1,2,23.4h0a16.63,16.63,0,0,1-23.4,2.1l-.9-.7"/><path class="cls-8" d="M190.8,22.6H309.5a41.78,41.78,0,0,1,41.8,41.8h0V308.8H149V64.4A41.85,41.85,0,0,1,190.8,22.6Z"/><g class="cls-9"><path class="cls-10" d="M326.6,368.4c29.8,0,54-27.5,54-61.4s-24.2-61.3-54-61.3-54,27.5-54,61.3S296.8,368.4,326.6,368.4Z"/></g><path class="cls-11" d="M190.8,22.6H309.6a41.78,41.78,0,0,1,41.8,41.8h0V308.8H148.9V64.5a42,42,0,0,1,41.9-41.9Z"/><path class="cls-12" d="M263.8,136.6H366a10.93,10.93,0,0,1,10.9,10.9v26.9A10.93,10.93,0,0,1,366,185.3H263.8a10.93,10.93,0,0,1-10.9-10.9V147.5A10.93,10.93,0,0,1,263.8,136.6Z"/><path class="cls-6" d="M92,307.8s-9.7-39.4,8.6-41.1c13.3-1.3,8.3,41.1,8.3,41.1Z"/><path class="cls-6" d="M105.4,307.8s-6.2-55.3,11.6-70.7,9.8,70.8,9.8,70.8Z"/><line class="cls-13" x1="118" y1="308" x2="118.8" y2="268.1"/><polyline class="cls-13" points="118.3 290.2 136.3 278.5 138.3 268.4"/><line class="cls-13" x1="119" y1="260.6" x2="119.4" y2="253.8"/><path class="cls-14" d="M266.9,133.1H369A10.93,10.93,0,0,1,379.9,144v26.9A10.93,10.93,0,0,1,369,181.8H266.9A10.93,10.93,0,0,1,256,170.9V144A10.86,10.86,0,0,1,266.9,133.1Z"/><polyline class="cls-10" points="271.1 131.8 237.4 92.3 240.3 88.4 299.3 132.4"/><path class="cls-15" d="M266.9,133.1H369A10.93,10.93,0,0,1,379.9,144v26.9A10.93,10.93,0,0,1,369,181.8H266.9A10.93,10.93,0,0,1,256,170.9V144A10.86,10.86,0,0,1,266.9,133.1Z"/><polyline class="cls-16" points="387.8 344.9 387.8 308.5 161 308.5 161 344.9 188.1 344.9"/><polyline class="cls-16" points="382.3 381.2 188.1 381.2 188.1 344.9 396.1 344.9"/><rect class="cls-3" x="270.6" y="152.7" width="63.9" height="11.2"/><rect class="cls-3" x="343.8" y="152.7" width="23" height="11.2"/><path class="cls-17" d="M517.9,408.3H400.1A13.29,13.29,0,0,1,386.8,395h0a13.29,13.29,0,0,1,13.3-13.3H517.9A13.29,13.29,0,0,1,531.2,395h0A13.23,13.23,0,0,1,517.9,408.3Z"/><path class="cls-3" d="M479.5,307.2v79.6a19.35,19.35,0,0,1-38.7,0L439,336.42c-.1-4-4.06-4.82-6.16-4.82-1,0-2.69,1.57-2.69.58,0-.58-1.45.45-1.45,1.45L421,385c-1.5,12.5-9.1,20.5-20.4,20.6-11.5.1-18.4-11.6-18.4-23l7.2-130.4c-31.7-22.8-41.6-43.8-45.9-62.6s15.7-24,15.7-24c-1-26,9.6-20.1,9.6-20.1,9.6,68.5,37.3,61.4,37.3,61.4"/><path class="cls-18" d="M479.5,307.2v79.6a19.35,19.35,0,0,1-38.7,0l-2-51.3c-.1-4-4.5-3.8-6.6-3.8a3.86,3.86,0,0,0-2.7,1.1,4,4,0,0,0-1.2,2.7L421,385c-1.5,12.5-9.1,20.5-20.4,20.6-11.5.1-18.4-11.6-18.4-23l7.2-130.4c-31.7-22.8-41.6-43.8-45.9-62.6s15.7-24,15.7-24c-1-26,9.6-20.1,9.6-20.1,9.6,68.5,37.3,61.4,37.3,61.4"/><path class="cls-3" d="M477.8,215.7l2.2-1.9a50.78,50.78,0,1,0-55.2,7.8"/><path class="cls-18" d="M477.8,215.7l2.2-1.9a50.78,50.78,0,1,0-55.2,7.8"/><path class="cls-19" d="M433.8,216.3h61.6a10.93,10.93,0,0,1,10.9,10.9v68a10.93,10.93,0,0,1-10.9,10.9H433.8a10.93,10.93,0,0,1-10.9-10.9v-68a10.86,10.86,0,0,1,10.9-10.9Z"/><g class="cls-20"><path class="cls-21" d="M479.4,127.7a7.2,7.2,0,1,1,7.2-7.2h0A7.3,7.3,0,0,1,479.4,127.7Z"/></g><path class="cls-22" d="M479.4,127.7a7.2,7.2,0,1,1,7.2-7.2h0A7.3,7.3,0,0,1,479.4,127.7Z"/><path class="cls-18" d="M399.1,191.4c16.2-1.9,27.4-15.6,27.4-32.4,0-9.8-3.5-17.9-10.4-23.9"/><path class="cls-18" d="M389.6,252.1s9.2,27.6,33.2,22.2"/><path class="cls-18" d="M388.8,272s10.1,21.6,34,16.2"/><path class="cls-18" d="M475.4,126.5,472,132"/><path class="cls-18" d="M446.1,217.2v19.5A13.1,13.1,0,0,0,450,246a13.55,13.55,0,0,0,9.3,3.8h46.1"/><g class="cls-20"><path class="cls-23" d="M467.2,267.4a4,4,0,1,1,4-4A4,4,0,0,1,467.2,267.4Z"/></g><g class="cls-20"><path class="cls-24" d="M481.4,268.8a4.59,4.59,0,0,1-4.6-4.6,4.65,4.65,0,0,1,4.6-4.6,4.59,4.59,0,0,1,4.6,4.6h0A4.53,4.53,0,0,1,481.4,268.8Z"/></g><path class="cls-22" d="M467.2,268.3a4.67,4.67,0,0,1-4.7-4.6,4.65,4.65,0,0,1,9.3-.1h0A4.67,4.67,0,0,1,467.2,268.3Z"/><path class="cls-22" d="M481.3,268.3a4.7,4.7,0,1,1,4.7-4.7,4.76,4.76,0,0,1-4.7,4.7Z"/><path class="cls-18" d="M505.6,259.2H494.9c-2,0-3.7,2.1-3.7,4.8s1.6,4.8,3.7,4.8h10.7"/><path class="cls-18" d="M505.6,277.6h-58c-2,0-3.6,2.2-3.6,4.8s1.6,4.8,3.6,4.8h58"/><path class="cls-18" d="M444.4,192.1a7.6,7.6,0,1,1,7.6-7.6h0A7.6,7.6,0,0,1,444.4,192.1Z"/><path class="cls-25" d="M399.5,207.3c6.6,9.9,17.7,16.1,24,14.8-3.7,0-12.8-9-17.4-14.3Z"/><line class="cls-5" x1="193.9" y1="308.6" x2="30.8" y2="308.6"/><polygon class="cls-3" points="255.9 247.8 249 245.5 255.9 243.3 258.2 236.4 260.4 243.3 267.3 245.5 260.4 247.8 258.2 254.7 255.9 247.8"/><path class="cls-12" d="M258.2,239.6l1.5,4.5,4.5,1.5-4.5,1.5-1.5,4.5-1.5-4.5-4.5-1.4,4.5-1.5,1.5-4.6m0-6.4-1.9,5.8-1.1,3.5-3.5,1.1-5.8,1.9,5.8,1.9,3.5,1.1,1.1,3.5,1.9,5.8,1.9-5.8,1.1-3.5,3.5-1.1,5.8-1.9-5.8-1.9-3.5-1.1-1.1-3.5Z"/><polygon class="cls-12" points="331.5 103.1 335.1 104.7 331.4 106.2 329.7 109.8 328.3 106.1 324.6 104.5 328.4 103 330 99.3 331.5 103.1"/><polygon class="cls-12" points="200.6 188.8 204.3 190.4 200.5 191.9 198.9 195.6 197.4 191.8 193.7 190.2 197.5 188.7 199.1 185.1 200.6 188.8"/><polygon class="cls-3" points="305.4 58.2 298.5 56 305.4 53.7 307.6 46.8 309.9 53.7 316.8 56 309.9 58.2 307.6 65.1 305.4 58.2"/><path class="cls-12" d="M307.6,50l1.5,4.5,4.5,1.5-4.5,1.5L307.6,62l-1.5-4.5L301.6,56l4.5-1.5,1.5-4.5m0-6.5-1.9,5.8-1.1,3.5-3.5,1.1-5.8,2,5.8,1.9,3.5,1.1,1.1,3.5,1.9,5.8,1.9-5.8,1.1-3.5,3.5-1.1L320,56l-5.8-1.9L310.7,53l-1.1-3.5-2-6Z"/><path class="cls-26" d="M220.4,85.7s-4.3,8.8,9.8,16.1l.1-8"/><path class="cls-26" d="M233.7,90.6l1.5,2a.69.69,0,0,0,.9.3c.1,0,.1-.1.2-.2l4.2-5.3a.68.68,0,0,0-.1-1c-.1-.1-.1-.1-.2-.1l-2.3-1.1"/><path class="cls-26" d="M231.4,72.2s8.3-5.6,17.5,7.3L241,80.8"/><circle class="cls-27" cx="221.31" cy="75.2" r="3.4" transform="translate(-11.57 55.22) rotate(-13.86)"/><path class="cls-28" d="M220.4,85.7s-4.3,8.8,9.8,16.1l.1-8"/><path class="cls-29" d="M222.8,87.4c-.1.1-.1.1,0,.2s.1,0,.1,0,.1-.1,0-.1S222.9,87.3,222.8,87.4Zm4.6,3.6h0m-.5-.5.1-.1s.1,0,0,.2-.1.1-.1.1v-.2Zm-1.2-.6s.1-.1.1,0h-.1c.1.1-.1,0,0,0Zm-2.9-2.7a.22.22,0,0,1,.2-.2l-.2.2Z"/><path class="cls-29" d="M210.8,64.4A15.92,15.92,0,0,1,226.1,68l5.6,4.8,8.4,7.2a1.61,1.61,0,0,1,.2,2.3l-4.5,5.4-4.4,5.4a1.61,1.61,0,0,1-2.3.2l-8.9-7.6-5.3-4.5a17.24,17.24,0,0,1-6-13.8,7.84,7.84,0,0,1,.2-1.4,1.77,1.77,0,0,1,1.1-1.4C210.5,64.5,210.7,64.5,210.8,64.4Z"/><circle class="cls-30" cx="221.31" cy="75.2" r="3.4" transform="translate(-11.57 55.22) rotate(-13.86)"/><path class="cls-28" d="M233.7,90.6l1.5,2a.69.69,0,0,0,.9.3c.1,0,.1-.1.2-.2l4.2-5.3a.68.68,0,0,0-.1-1c-.1-.1-.1-.1-.2-.1l-2.3-1.1"/><path class="cls-28" d="M231.4,72.2s8.3-5.6,17.5,7.3L241,80.8"/><circle class="cls-30" cx="221.31" cy="75.2" r="3.4" transform="translate(-11.57 55.22) rotate(-13.86)"/><line class="cls-5" x1="21.8" y1="308.2" x2="0.3" y2="308.2"/><circle class="cls-31" cx="86.9" cy="47.7" r="22.8"/></g><rect class="cls-25" x="188.5" y="346.11" width="195.02" height="6.5"/><rect class="cls-25" x="160.73" y="309.06" width="224.34" height="6.5"/></g></g></svg>